<?xml version="1.0" standalone="no"?>
<!DOCTYPE svg PUBLIC "-//W3C//DTD SVG 20010904//EN"
 "http://www.w3.org/TR/2001/REC-SVG-20010904/DTD/svg10.dtd">
<svg version="1.0" xmlns="http://www.w3.org/2000/svg"
 width="500.000000pt" height="500.000000pt" viewBox="0 0 500.000000 500.000000"
 preserveAspectRatio="xMidYMid meet">

<g transform="translate(0.000000,500.000000) scale(0.100000,-0.100000)"
fill="#000000" stroke="none">
<path d="M1200 2490 l0 -1670 295 0 295 0 0 1122 0 1123 39 -55 c22 -30 46
-66 52 -80 7 -14 37 -60 66 -102 29 -43 53 -80 53 -83 0 -3 23 -39 50 -80 28
-41 50 -77 50 -80 0 -3 23 -39 50 -80 28 -41 50 -77 50 -80 0 -4 17 -32 38
-63 21 -32 63 -95 93 -142 29 -47 58 -88 64 -92 5 -4 7 -8 2 -8 -4 0 17 -35
48 -79 30 -43 55 -82 55 -85 0 -4 22 -39 48 -79 27 -40 51 -77 53 -83 6 -14
169 -270 240 -376 33 -47 59 -91 59 -97 0 -6 5 -11 10 -11 6 0 10 -5 10 -11 0
-5 18 -37 40 -69 22 -32 40 -61 40 -65 0 -5 56 -93 139 -220 26 -38 53 -82 61
-97 l13 -28 294 0 293 0 0 1670 0 1670 -295 0 -295 0 0 -1122 0 -1123 -24 30
c-14 17 -31 41 -38 55 -7 14 -29 51 -50 82 -21 31 -38 59 -38 62 0 2 -25 40
-55 84 -30 44 -55 85 -55 91 0 6 -4 11 -10 11 -5 0 -10 5 -10 11 0 5 -18 37
-40 69 -22 32 -40 61 -40 65 0 3 -21 38 -47 78 -26 39 -70 108 -98 152 -29 44
-74 114 -101 155 -27 41 -51 80 -53 85 -2 6 -30 49 -63 97 -32 48 -58 90 -58
93 0 3 -22 39 -50 80 -28 41 -50 77 -50 81 0 3 -16 28 -35 54 -19 26 -35 50
-35 54 0 7 -80 132 -172 268 -32 47 -58 89 -58 93 0 3 -23 39 -50 80 -27 41
-50 77 -50 81 0 3 -20 35 -45 71 -25 35 -45 66 -45 69 0 3 -14 25 -30 50 l-31
44 -289 0 -290 0 0 -1670z"/>
</g>
</svg>
